<svg width="36" height="36" viewBox="0 0 36 36" fill="none" xmlns="http://www.w3.org/2000/svg">
<g id="ico/close">
<g id="cancel">
<path id="Shape" fill-rule="evenodd" clip-rule="evenodd" d="M20.6136 17.9991L28.4567 10.1559C29.1787 9.43393 29.1787 8.26339 28.4567 7.54152C27.7347 6.81955 26.5643 6.81955 25.8423 7.54152L17.9991 15.3848L10.1558 7.54142C9.43385 6.81945 8.2634 6.81945 7.54143 7.54142C6.81956 8.26339 6.81956 9.43393 7.54143 10.1558L15.3847 17.999L7.54143 25.8422C6.81956 26.5642 6.81956 27.7347 7.54143 28.4566C8.2634 29.1786 9.43385 29.1786 10.1558 28.4566L17.9991 20.6133L25.8423 28.4566C26.5642 29.1786 27.7347 29.1786 28.4567 28.4566C29.1787 27.7346 29.1787 26.5642 28.4567 25.8422L20.6136 17.9991Z" fill="white"/>
</g>
</g>
</svg>
